# xmcd
#
# Track frame offsets: 
#        150
#        21009
#        36770
#        57760
#        77124
#        98399
#        118915
#        139877
#        159118
#        176527
#        191290
#        212425
#        234555
#        240579
#        263154
#        286917
#        303116
#
# Disc length: 4350 seconds
#
# Revision: 0
# Processed by: cddbd v1.5.2PL0 Copyright (c) Steve Scherf et al.
# Submitted via: ExactAudioCopyFreeDBPlugin 1.0
#
DISCID=d110fc11
DTITLE=Fernando Solares - Pronto Volverá
DYEAR=2008
DGENRE=Contemporánea Internacional
TTITLE0=Adorándote
TTITLE1=Marta y María
TTITLE2=Pronto Volverá
TTITLE3=No Esperé
TTITLE4=Tengo Libertad
TTITLE5=No hay olvido
TTITLE6=Por Ti
TTITLE7=Buen Señor
TTITLE8=Un Milagro
TTITLE9=Simón de Cirene
TTITLE10=Mira lo que has hecho
TTITLE11=Apocalipsis
TTITLE12=10.40
TTITLE13=Adorando Tu Nombre
TTITLE14=El Ladrón
TTITLE15=Tengo Fe
TTITLE16=Enséñame a Adorar
EXTD=
EXTT0=
EXTT1=
EXTT2=
EXTT3=
EXTT4=
EXTT5=
EXTT6=
EXTT7=
EXTT8=
EXTT9=
EXTT10=
EXTT11=
EXTT12=
EXTT13=
EXTT14=
EXTT15=
EXTT16=
PLAYORDER=
